<?xml version="1.0" standalone="no"?>
<!DOCTYPE svg PUBLIC "-//W3C//DTD SVG 20010904//EN"
 "http://www.w3.org/TR/2001/REC-SVG-20010904/DTD/svg10.dtd">
<svg version="1.0" xmlns="http://www.w3.org/2000/svg"
 width="300.000000pt" height="300.000000pt" viewBox="0 0 300.000000 300.000000"
 preserveAspectRatio="xMidYMid meet">
<metadata>
Created by potrace 1.10, written by Peter Selinger 2001-2011
</metadata>
<g transform="translate(0.000000,300.000000) scale(0.100000,-0.100000)"
fill="#000000" stroke="none">
<path d="M1300 2586 c-105 -19 -183 -37 -195 -46 -5 -4 -35 -15 -66 -24 -75
-21 -226 -100 -329 -171 -123 -85 -329 -299 -308 -320 2 -2 34 31 70 75 257
303 626 473 1028 473 402 0 756 -162 1026 -471 35 -40 64 -66 64 -57 0 15
-111 146 -166 196 -49 44 -163 129 -174 129 -5 0 -10 4 -10 9 0 11 -233 126
-285 141 -22 6 -49 16 -60 21 -97 45 -444 71 -595 45z"/>
<path d="M1290 2525 c-285 -45 -542 -180 -748 -394 -59 -62 -99 -118 -89 -127
2 -2 27 24 56 58 67 81 177 178 266 236 72 47 236 132 254 132 6 0 25 6 43 14
103 45 223 68 379 73 174 6 234 -1 404 -49 250 -70 475 -215 637 -409 27 -32
55 -59 61 -58 8 0 8 2 0 6 -7 2 -13 11 -13 19 0 19 -160 185 -230 239 -135
103 -315 193 -465 232 -166 42 -388 54 -555 28z"/>
<path d="M1371 2333 c-7 -37 -15 -79 -18 -93 -6 -22 -5 -24 10 -11 10 7 17 20
17 27 0 8 6 14 13 14 6 0 22 3 34 6 16 4 23 0 28 -15 3 -12 12 -21 20 -21 22
0 -49 154 -73 158 -17 3 -21 -6 -31 -65z m63 -20 c7 -20 4 -23 -22 -23 -32 0
-31 -2 -17 65 l7 30 13 -25 c7 -14 16 -35 19 -47z"/>
<path d="M1546 2378 c-21 -30 -21 -112 0 -132 30 -30 94 -10 94 30 0 21 -17
17 -23 -7 -4 -16 -12 -20 -34 -17 -25 3 -28 7 -31 45 -2 23 2 52 8 63 15 27
52 23 65 -7 12 -28 25 -30 25 -5 0 48 -76 70 -104 30z"/>
<path d="M1192 2351 c-43 -17 -48 -35 -7 -25 21 5 25 -1 45 -60 12 -36 26 -66
31 -66 13 0 12 8 -12 69 -21 57 -20 81 6 81 8 0 15 5 15 10 0 14 -28 11 -78
-9z"/>
<path d="M1730 2360 c0 -5 6 -10 14 -10 25 0 26 -14 5 -72 -18 -49 -23 -54
-45 -50 -13 2 -24 0 -24 -4 0 -13 100 -42 106 -32 3 5 -4 12 -15 15 -23 6 -23
6 4 83 9 25 18 35 33 35 39 1 33 13 -14 29 -55 19 -64 20 -64 6z"/>
<path d="M1026 2269 c-55 -43 -24 -85 55 -74 49 7 51 6 47 -15 -4 -33 -33 -48
-58 -32 -31 19 -45 14 -25 -8 38 -42 108 -12 103 43 l-3 32 -60 0 c-59 0 -62
2 -56 34 2 16 41 23 57 10 8 -6 18 -9 22 -5 8 9 -25 36 -44 36 -6 0 -23 -9
-38 -21z"/>
<path d="M1912 2283 c-23 -9 -63 -83 -60 -111 4 -34 50 -62 75 -46 29 18 63
75 63 105 0 40 -41 67 -78 52z m58 -51 c0 -23 -37 -81 -56 -89 -8 -3 -23 1
-31 10 -20 20 -12 55 22 91 21 22 28 25 45 16 11 -6 20 -18 20 -28z"/>
<path d="M878 2154 l-37 -33 57 -61 57 -61 40 40 c25 26 34 41 24 41 -9 0 -26
-11 -39 -25 -22 -24 -25 -24 -42 -8 -18 16 -18 17 9 45 35 36 21 50 -15 15
l-29 -27 -19 21 c-19 21 -18 21 15 48 19 16 30 30 25 34 -5 3 -26 -10 -46 -29z"/>
<path d="M2022 2137 c-44 -45 -64 -77 -48 -77 2 0 30 26 61 58 l57 57 -37 -72
c-31 -61 -35 -75 -25 -89 12 -13 21 -8 72 43 32 32 54 61 49 66 -5 5 -31 -15
-60 -45 l-52 -53 35 71 c26 53 32 74 23 83 -16 16 -18 16 -75 -42z"/>
<path d="M2143 1996 c-69 -20 -95 -44 -41 -38 18 2 30 -4 42 -23 16 -25 16
-28 1 -45 -9 -10 -12 -21 -7 -24 13 -8 113 115 110 134 -4 21 -23 20 -105 -4z
m78 -14 c-5 -9 -18 -25 -28 -35 -19 -16 -21 -16 -38 3 -17 19 -17 20 6 28 13
5 31 12 39 15 26 10 31 7 21 -11z"/>
<path d="M680 1886 c0 -8 28 -35 63 -61 l62 -46 -81 6 c-51 5 -84 4 -88 -3 -3
-6 27 -12 80 -17 68 -5 88 -4 95 6 5 8 9 16 8 19 -1 13 -139 108 -139 96z"/>
<path d="M2235 1861 c-38 -16 -71 -33 -73 -40 -5 -15 -3 -15 73 20 37 16 69
29 71 26 2 -2 -26 -19 -61 -38 -61 -32 -77 -50 -55 -64 5 -3 37 1 71 10 83 22
86 12 5 -15 -36 -12 -66 -26 -66 -31 0 -14 11 -11 81 17 75 30 81 35 70 53 -8
12 -19 11 -75 -3 -89 -22 -90 -21 -16 22 48 27 65 42 62 55 -4 21 -3 22 -87
-12z"/>
<path d="M615 1688 c-2 -7 -6 -30 -10 -50 -6 -41 -15 -36 94 -58 30 -6 58 -7
61 -3 12 13 21 91 11 97 -9 6 -21 -26 -21 -60 0 -17 -5 -20 -30 -16 -30 4 -32
12 -14 70 2 6 -3 12 -11 12 -10 0 -15 -11 -15 -35 0 -32 -3 -35 -29 -35 -28 0
-28 1 -23 45 4 41 -3 62 -13 33z"/>
<path d="M2301 1683 c-40 -6 -75 -14 -78 -17 -8 -8 9 -96 19 -96 5 0 8 19 6
43 -3 39 -1 42 24 45 24 3 27 0 30 -35 2 -21 7 -36 13 -33 6 3 9 7 9 10 -15
64 -14 70 16 70 26 0 29 -3 32 -37 2 -21 8 -37 13 -37 10 2 8 55 -3 84 -6 14
-15 15 -81 3z"/>
<path d="M1432 1620 c-41 -25 -72 -76 -72 -118 0 -76 66 -142 144 -142 42 0
51 4 91 45 41 40 45 49 45 91 0 108 -118 179 -208 124z m119 -15 c35 -19 69
-70 69 -105 0 -55 -67 -120 -124 -120 -52 0 -116 67 -116 122 0 35 37 88 73
103 42 18 62 18 98 0z"/>
<path d="M650 1513 c-39 -8 -50 -22 -50 -70 0 -38 3 -44 18 -39 50 14 113 18
127 6 17 -14 18 -11 15 40 -2 57 -36 76 -110 63z m71 -23 c10 -6 19 -20 19
-30 0 -15 -7 -20 -29 -20 -16 0 -43 -3 -61 -6 -30 -7 -31 -6 -28 22 2 23 9 30
33 35 45 10 45 10 66 -1z"/>
<path d="M2238 1514 c-17 -16 8 -24 80 -25 l77 -1 -83 -21 c-72 -18 -82 -24
-80 -42 3 -18 11 -20 86 -23 52 -2 82 1 82 8 0 6 -30 10 -77 10 -42 0 -73 3
-69 7 4 4 38 15 74 23 56 13 68 19 70 38 3 21 0 22 -55 22 -32 0 -67 3 -78 6
-11 3 -24 2 -27 -2z"/>
<path d="M716 1293 c9 -37 24 -53 24 -26 0 28 -10 53 -21 53 -5 0 -6 -12 -3
-27z"/>
<path d="M2360 1300 c0 -24 -11 -25 -76 -5 -56 17 -74 19 -74 6 0 -5 31 -17
69 -26 65 -17 69 -20 60 -41 -5 -14 -4 -26 1 -29 6 -4 12 0 14 7 2 7 9 28 15
47 14 42 14 61 1 61 -5 0 -10 -9 -10 -20z"/>
<path d="M794 1163 c-9 -26 -18 -49 -19 -50 0 -1 -25 4 -54 12 -38 10 -51 10
-48 2 2 -7 25 -17 51 -24 61 -15 63 -18 26 -33 -16 -7 -30 -19 -30 -27 0 -14
3 -14 23 -1 12 9 46 27 75 42 29 15 50 31 47 37 -4 6 -20 1 -41 -11 -19 -12
-34 -19 -34 -17 0 3 9 27 20 53 13 29 17 51 12 56 -6 6 -17 -9 -28 -39z"/>
<path d="M2160 1170 c-35 -35 -24 -72 31 -100 53 -27 85 -26 105 5 23 35 7 68
-45 95 -50 25 -66 25 -91 0z m79 -20 c43 -21 57 -45 40 -66 -16 -20 -46 -17
-85 7 -35 21 -43 46 -22 67 16 16 22 15 67 -8z"/>
<path d="M450 434 c0 -4 16 -28 35 -54 41 -56 136 -146 220 -211 67 -50 234
-149 253 -149 31 0 5 22 -77 64 -50 26 -96 52 -103 59 -7 6 -33 25 -58 41 -47
30 -250 231 -250 247 0 5 -4 9 -10 9 -5 0 -10 -3 -10 -6z"/>
<path d="M2518 421 c-9 -24 -72 -92 -150 -160 -109 -96 -156 -130 -243 -175
-39 -20 -80 -42 -90 -51 -20 -14 -20 -14 -1 -15 31 0 203 102 293 175 88 70
213 201 213 222 0 15 -16 18 -22 4z"/>
<path d="M406 411 c-13 -21 136 -180 259 -275 106 -83 196 -136 230 -136 22 0
14 7 -41 35 -129 67 -286 197 -395 327 -26 32 -50 54 -53 49z"/>
<path d="M2581 410 c-1 -8 -56 -69 -124 -135 -118 -116 -248 -214 -340 -256
-39 -17 -40 -19 -14 -19 23 0 159 69 177 90 3 3 23 19 45 36 60 44 92 73 158
141 75 78 111 128 104 145 -4 10 -6 9 -6 -2z"/>
</g>
</svg>
