<?xml version="1.0" standalone="no"?>
<!DOCTYPE svg PUBLIC "-//W3C//DTD SVG 20010904//EN"
 "http://www.w3.org/TR/2001/REC-SVG-20010904/DTD/svg10.dtd">
<svg version="1.0" xmlns="http://www.w3.org/2000/svg"
 width="300.000000pt" height="300.000000pt" viewBox="0 0 300.000000 300.000000"
 preserveAspectRatio="xMidYMid meet">
<metadata>
Created by potrace 1.10, written by Peter Selinger 2001-2011
</metadata>
<g transform="translate(0.000000,300.000000) scale(0.100000,-0.100000)"
fill="#000000" stroke="none">
<path d="M1733 1952 c-26 -3 -42 -15 -75 -58 -24 -30 -45 -54 -49 -54 -3 0 -4
25 -1 55 l4 55 -31 0 -31 0 0 -140 0 -140 30 0 c29 0 30 2 30 43 0 24 6 51 13
61 11 15 17 11 52 -43 37 -57 43 -61 78 -61 43 0 44 -2 -18 80 -23 30 -45 61
-49 68 -5 9 10 34 43 72 28 32 48 60 44 62 -5 2 -23 2 -40 0z"/>
<path d="M1230 1931 c-5 -11 -10 -69 -10 -130 0 -140 1 -141 145 -141 145 0
145 0 145 149 0 78 -4 121 -12 129 -8 8 -53 12 -135 12 -111 0 -123 -2 -133
-19z m255 -121 l0 -115 -117 -3 -118 -3 0 114 c0 63 3 117 7 121 4 3 57 5 117
4 l111 -3 0 -115z"/>
<path d="M1305 1805 c0 -83 1 -85 24 -85 20 0 22 4 17 25 -6 22 -3 25 22 25
41 0 72 26 72 60 0 43 -23 60 -83 60 l-52 0 0 -85z m93 28 c3 -20 -1 -23 -27
-23 -27 0 -31 4 -31 26 0 22 4 25 28 22 19 -2 28 -9 30 -25z"/>
<path d="M1226 1632 c-10 -10 -6 -92 4 -92 6 0 10 6 10 13 0 7 10 17 23 22 31
14 29 47 -5 56 -15 4 -29 4 -32 1z"/>
<path d="M1323 1628 c-18 -24 -36 -79 -28 -86 4 -4 10 -1 12 6 3 6 12 12 22
12 9 0 23 -6 30 -12 11 -11 12 -8 7 14 -8 35 -24 78 -30 78 -2 0 -8 -6 -13
-12z"/>
<path d="M1480 1635 c-10 -17 -5 -85 5 -85 6 0 11 5 11 10 1 6 2 13 3 16 0 3
10 -4 20 -17 11 -13 23 -21 27 -17 4 5 0 16 -9 26 -22 24 -21 39 0 51 10 5 14
13 10 17 -4 4 -18 -3 -31 -15 l-24 -23 -4 24 c-2 12 -5 19 -8 13z"/>
<path d="M1569 1637 c-4 -38 0 -87 7 -89 13 -4 17 73 5 85 -6 6 -11 8 -12 4z"/>
<path d="M1610 1638 c-5 -33 -1 -88 6 -85 5 1 7 10 6 20 -5 26 13 21 26 -8 18
-40 32 -29 32 25 0 28 -4 50 -10 50 -5 0 -10 -12 -10 -27 l0 -28 -25 30 c-13
17 -25 27 -25 23z"/>
<path d="M1718 1629 c-21 -12 -24 -62 -5 -77 6 -5 24 -10 40 -10 22 0 27 5 27
24 0 18 -5 24 -22 24 -17 0 -19 -3 -9 -9 10 -6 10 -10 1 -16 -16 -10 -33 9
-28 31 3 14 11 18 33 16 29 -2 29 -2 11 13 -23 18 -25 18 -48 4z"/>
<path d="M1390 1585 c0 -25 5 -45 10 -45 6 0 10 9 10 21 0 21 0 21 20 -2 l19
-24 -1 25 c0 14 0 30 2 35 6 25 -2 35 -30 35 -29 0 -30 -2 -30 -45z"/>
<path d="M1300 1509 c0 -7 8 -18 18 -26 16 -13 15 -13 -7 -7 -16 4 -21 3 -17
-5 8 -13 42 -15 50 -3 10 17 -7 52 -25 52 -11 0 -19 -5 -19 -11z"/>
<path d="M1364 1508 c3 -7 9 -21 12 -30 9 -26 18 -22 31 12 12 31 6 39 -15 18
-9 -9 -12 -9 -12 0 0 7 -5 12 -11 12 -6 0 -8 -6 -5 -12z"/>
<path d="M1435 1509 c-4 -6 1 -17 11 -25 17 -12 17 -13 2 -8 -10 3 -18 1 -18
-5 0 -6 11 -11 24 -11 21 0 25 5 24 30 -1 22 -6 30 -19 30 -10 0 -21 -5 -24
-11z"/>
<path d="M1498 1508 c7 -7 12 -20 12 -30 0 -10 5 -18 10 -18 6 0 10 11 10 24
0 13 6 27 13 29 6 3 -4 6 -22 6 -27 1 -32 -2 -23 -11z"/>
<path d="M1568 1490 c-4 -27 -2 -30 21 -29 24 0 24 1 6 9 -17 7 -17 9 -2 9 9
1 17 6 17 11 0 6 -8 10 -17 11 -15 0 -15 2 2 9 19 8 19 9 -1 9 -17 1 -23 -6
-26 -29z"/>
<path d="M1630 1490 c0 -16 5 -30 10 -30 6 0 10 4 10 8 0 4 9 8 19 8 11 0 17
-4 15 -8 -3 -4 0 -8 5 -8 6 0 11 14 11 30 0 33 -14 40 -25 13 -6 -17 -7 -17
-16 0 -15 26 -29 20 -29 -13z"/>
</g>
</svg>
